<svg width="62" height="35" viewBox="0 0 62 35" fill="none" xmlns="http://www.w3.org/2000/svg">
<path d="M39.1895 16.2056C39.2286 17.0252 39.0402 17.7828 38.9139 18.5495C38.7857 19.2608 38.6178 19.9644 38.411 20.657C38.0569 21.8908 37.5958 23.0915 37.033 24.2452C35.7442 26.925 33.9426 29.3264 31.7301 31.3137C31.2133 31.7729 31.1789 31.7936 30.6461 31.3252C29.368 30.1888 28.2266 28.9076 27.2448 27.5074C26.0107 25.7661 25.0252 23.8615 24.3166 21.8485C23.8443 20.4654 23.4908 19.0446 23.2601 17.6014C23.1469 16.7485 23.1392 15.885 23.2371 15.0302C23.2884 14.2521 23.3812 13.4774 23.5151 12.7092C23.6345 12.0526 23.7929 11.403 23.9606 10.7533C24.7094 7.93363 26.0038 5.28805 27.7707 2.96618C28.3893 2.13101 29.0744 1.34716 29.8193 0.62225C29.9889 0.434112 30.1946 0.282055 30.4243 0.175163C30.6539 0.0682714 30.9027 0.00873553 31.1559 0.000108114C31.3953 -0.00252813 31.6328 0.0430719 31.8541 0.134185C32.0755 0.225298 32.2762 0.360057 32.4443 0.530419C33.1353 1.19307 33.7763 1.90593 34.362 2.66315C36.3816 5.24349 37.8178 8.23066 38.5717 11.419C38.7417 12.1514 38.845 12.8929 38.9989 13.6275C39.007 13.6536 39.0117 13.6806 39.0127 13.7079C38.9989 14.5573 39.2355 15.3814 39.1895 16.2056Z" fill="#2F1280"/>
<path d="M36.2108 33.7977C36.744 33.5848 37.2884 33.4008 37.8414 33.2467C40.9573 32.1824 43.7933 30.4302 46.139 28.1204C48.4848 25.8105 50.2801 23.0023 51.3915 19.904C51.7244 18.9508 52.0065 17.9807 52.2367 16.9976C52.3194 16.6556 52.386 16.5821 52.7374 16.5821C53.3943 16.5641 54.0518 16.5886 54.7056 16.6556C55.7207 16.7887 56.7404 16.8851 57.7463 17.0963C58.5203 17.2639 59.2965 17.4109 60.0567 17.6335C60.4216 17.7364 60.7469 17.947 60.9899 18.2379C61.2329 18.5288 61.3824 18.8863 61.4186 19.2635C61.427 19.5522 61.3664 19.8386 61.2418 20.0991C59.7098 24.639 56.7784 28.5771 52.8683 31.3482C51.9066 32.0229 50.899 32.6297 49.8528 33.1641C49.1979 33.4725 48.5129 33.7125 47.8088 33.8804C47.1932 34.0622 46.5674 34.2079 45.9348 34.3165C45.3871 34.4303 44.8335 34.5131 44.2766 34.5645C43.4153 34.5989 42.5633 34.7642 41.6975 34.7091C40.7306 34.6494 39.766 34.5783 38.806 34.4336C38.1285 34.3326 37.4625 34.1903 36.7965 34.0525C36.5863 34.0071 36.3873 33.9205 36.2108 33.7977Z" fill="#2F1280"/>
<path d="M26.1401 33.7794C26.0164 33.8953 25.863 33.9748 25.6969 34.0089C25.0263 34.1352 24.3626 34.2867 23.6897 34.4084C23.0167 34.5301 22.2772 34.5484 21.5721 34.638C20.7431 34.7401 19.9047 34.7401 19.0757 34.638C18.8461 34.6127 18.6394 34.5783 18.4212 34.5668C17.1958 34.4785 15.9824 34.2669 14.7994 33.9355C14.1908 33.7771 13.596 33.575 13.0034 33.373C12.6592 33.239 12.3266 33.077 12.009 32.8886C7.60729 30.5673 4.09188 26.8629 2.00489 22.3467C1.62273 21.5164 1.2929 20.663 1.01733 19.7915C0.909211 19.3558 0.96923 18.8953 1.18543 18.5018C1.40163 18.1083 1.75817 17.8106 2.18404 17.668C2.92657 17.4354 3.68386 17.2529 4.45081 17.1216C5.2707 16.9586 6.09749 16.8622 6.92198 16.7405C7.79007 16.6282 8.6648 16.5752 9.54011 16.5821C9.99944 16.5821 10.0385 16.6418 10.135 17.078C10.4659 18.5716 10.946 20.0283 11.5681 21.4261C12.1655 22.7766 12.9029 24.0608 13.7682 25.2576C14.8558 26.7671 16.1298 28.1331 17.5599 29.3234C18.9438 30.4826 20.4667 31.4651 22.0935 32.2481C23.2 32.7896 24.3529 33.2306 25.5384 33.5658C25.7245 33.6209 25.9082 33.6967 26.1401 33.7794Z" fill="#2F1280"/>
<path d="M12.2019 11.5177C12.1009 10.441 12.3237 9.34598 12.3765 8.24174C12.4362 7.53438 12.5475 6.83232 12.7095 6.14116C12.7582 5.91033 12.8527 5.69162 12.9875 5.49798C13.1223 5.30434 13.2946 5.13971 13.4942 5.01383C13.6938 4.88796 13.9166 4.8034 14.1495 4.76517C14.3824 4.72694 14.6205 4.73582 14.8499 4.79127C15.7889 5.03257 16.7098 5.33941 17.6059 5.70956C19.0155 6.27119 20.3818 6.93568 21.6939 7.69765C22.0889 7.92723 22.1073 7.94329 21.9488 8.3703C21.6585 9.13592 21.4079 9.91597 21.1978 10.7073C20.9825 11.582 20.8116 12.467 20.6857 13.3589C20.4996 14.5871 20.5548 15.813 20.5525 17.0435C20.5866 17.7385 20.6772 18.4295 20.8235 19.1097C20.9245 19.7433 21.0761 20.3677 21.2392 20.9899C21.8626 23.371 22.8536 25.6404 24.1766 27.7163C24.8703 28.784 25.6377 29.8019 26.4732 30.7628C26.549 30.8546 26.7028 30.9487 26.627 31.0681C26.5329 31.238 26.356 31.1507 26.2205 31.1071C25.133 30.7832 24.0719 30.3764 23.0466 29.8904C20.6259 28.7208 18.4804 27.0519 16.7515 24.9936C14.7001 22.5392 13.292 19.613 12.6544 16.4788C12.4967 15.6633 12.387 14.8392 12.3259 14.0109C12.2309 13.1834 12.1895 12.3506 12.2019 11.5177Z" fill="#2F1280"/>
<path d="M35.5815 31.1829C35.6548 31.0202 35.7585 30.8729 35.887 30.749C37.261 29.1895 38.4296 27.4606 39.3641 25.6043C39.9081 24.5308 40.3687 23.4172 40.7421 22.2732C41.0889 21.1948 41.362 20.0942 41.5597 18.9788C41.7644 17.7927 41.8513 16.5893 41.8192 15.386C41.8012 14.4295 41.7113 13.4756 41.5505 12.5325C41.3189 11.0899 40.9292 9.67714 40.3884 8.31981C40.246 7.97545 40.3608 7.86067 40.602 7.72752C42.1247 6.83896 43.7224 6.08538 45.3767 5.47542C46.0882 5.19879 46.817 4.96873 47.5585 4.7867C47.9414 4.70854 48.3395 4.76024 48.6897 4.93362C49.0399 5.10701 49.3223 5.39218 49.4922 5.74402C49.6596 6.1923 49.7662 6.66096 49.8092 7.13752C49.9516 8.00071 50.0136 8.87309 50.0916 9.74546C50.2191 10.9972 50.2191 12.2587 50.0916 13.5104C50.0044 14.2703 49.9814 15.0348 49.862 15.7924C49.659 16.99 49.3516 18.1676 48.9433 19.3117C48.5025 20.5162 47.9351 21.6705 47.2507 22.7553C46.0776 24.6377 44.5891 26.3042 42.8504 27.6819C41.5839 28.6864 40.1948 29.5257 38.7164 30.1797C37.8914 30.534 37.0481 30.8444 36.1902 31.1094C36.0055 31.1606 35.8144 31.1845 35.6229 31.1806L35.5815 31.1829Z" fill="#2F1280"/>
</svg>
