<svg width="50" height="50" viewBox="0 0 50 50" fill="none" xmlns="http://www.w3.org/2000/svg">
<mask id="mask0_1_202" style="mask-type:alpha" maskUnits="userSpaceOnUse" x="0" y="0" width="50" height="50">
<path d="M50 25C50 38.8071 38.8071 50 25 50C11.1929 50 0 38.8071 0 25C0 11.1929 11.1929 0 25 0C38.8071 0 50 11.1929 50 25Z" fill="#DDDDDD"/>
</mask>
<g mask="url(#mask0_1_202)">
<path d="M50 25C50 38.8071 38.8071 50 25 50C11.1929 50 0 38.8071 0 25C0 11.1929 11.1929 0 25 0C38.8071 0 50 11.1929 50 25Z" fill="#E1DEDE"/>
<path d="M25.3977 35.9843C15.9089 35.9843 7.80383 37.4803 7.80383 43.4644C7.80383 49.4508 15.8582 50.9996 25.3977 50.9996C34.8865 50.9996 42.9915 49.5058 42.9915 43.5195C42.9915 37.5331 34.9393 35.9843 25.3977 35.9843Z" fill="#2F1280"/>
<path opacity="0.4" d="M25.3978 30.2854C31.8616 30.2854 37.0405 25.1042 37.0405 18.6427C37.0405 12.1811 31.8616 7 25.3978 7C18.9363 7 13.7551 12.1811 13.7551 18.6427C13.7551 25.1042 18.9363 30.2854 25.3978 30.2854Z" fill="#2F1280"/>
</g>
</svg>
